<svg width="73" height="74" viewBox="0 0 73 74" fill="none" xmlns="http://www.w3.org/2000/svg">
<circle cx="36.5" cy="36.7817" r="36.5" fill="url(#paint0_linear_6285_10466)"/>
<path d="M57.144 34.2118C58.7959 34.2118 59.4855 32.0798 58.1437 31.097L37.7283 16.1784C37.4367 15.9638 37.0847 15.8481 36.7233 15.8481C36.3618 15.8481 36.0098 15.9638 35.7183 16.1784L15.3028 31.097C13.9611 32.0744 14.6507 34.2118 16.3078 34.2118H19.6169V54.2966H15.7679C15.5327 54.2966 15.3403 54.49 15.3403 54.7263V57.5188C15.3403 57.7551 15.5327 57.9484 15.7679 57.9484H57.6786C57.9138 57.9484 58.1063 57.7551 58.1063 57.5188V54.7263C58.1063 54.49 57.9138 54.2966 57.6786 54.2966H53.8297V34.2118H57.144ZM36.7233 19.9645L51.2156 30.5546H22.2309L36.7233 19.9645ZM23.4658 34.2118H29.7203V54.2966H23.4658V34.2118ZM33.5693 34.2118H39.8238V54.2966H33.5693V34.2118ZM49.9807 54.2966H43.6727V34.2118H49.9807V54.2966Z" fill="#00B3FE"/>
<defs>
<linearGradient id="paint0_linear_6285_10466" x1="64.7875" y1="0.28174" x2="36.5" y2="73.2817" gradientUnits="userSpaceOnUse">
<stop stop-color="white"/>
<stop offset="1" stop-color="white"/>
</linearGradient>
</defs>
</svg>
