<svg width="17" height="16" viewBox="0 0 17 16" fill="none" xmlns="http://www.w3.org/2000/svg">
<path d="M16.3436 6.97902C16.978 6.97902 17.2429 6.16876 16.7275 5.79527L8.88597 0.125518C8.77399 0.0439656 8.63877 0 8.49995 0C8.36113 0 8.22591 0.0439656 8.11393 0.125518L0.272361 5.79527C-0.243018 6.16672 0.0218581 6.97902 0.658382 6.97902H1.92938V14.6122H0.450999C0.360653 14.6122 0.286734 14.6856 0.286734 14.7754V15.8367C0.286734 15.9265 0.360653 16 0.450999 16H16.5489C16.6392 16 16.7132 15.9265 16.7132 15.8367V14.7754C16.7132 14.6856 16.6392 14.6122 16.5489 14.6122H15.0705V6.97902H16.3436ZM8.49995 1.56439L14.0665 5.58913H2.93344L8.49995 1.56439ZM3.40776 6.97902H5.81012V14.6122H3.40776V6.97902ZM7.2885 6.97902H9.69087V14.6122H7.2885V6.97902ZM13.5921 14.6122H11.1692V6.97902H13.5921V14.6122Z" fill="#0F5FC2"/>
</svg>
