<svg width="49" height="48" viewBox="0 0 49 48" fill="none" xmlns="http://www.w3.org/2000/svg">
<rect opacity="0.1" x="0.570312" width="48" height="48" rx="14" fill="#00A3FE"/>
<path d="M20 16L20 24.05C18.8589 24.2816 18 25.2905 18 26.5C18 27.7095 18.8589 28.7184 20 28.95V31H21V28.95C22.1411 28.7184 23 27.7095 23 26.5C23 25.2905 22.1411 24.2816 21 24.05L21 16H20Z" fill="#00A3FE"/>
<path d="M28 16L28 18.05C26.8589 18.2816 26 19.2905 26 20.5C26 21.7095 26.8589 22.7184 28 22.95V31H29V22.95C30.1411 22.7184 31 21.7095 31 20.5C31 19.2905 30.1411 18.2816 29 18.05L29 16H28Z" fill="#00A3FE"/>
</svg>
