<svg width="15" height="14" viewBox="0 0 15 14" fill="none" xmlns="http://www.w3.org/2000/svg">
<path d="M8.1945 0.867655C8.44779 0.614381 8.77499 0.448108 9.12889 0.39282C9.48279 0.337531 9.84511 0.396085 10.1636 0.560035C10.4821 0.723985 10.7402 0.984857 10.9008 1.30502C11.0615 1.62519 11.1162 1.9881 11.0573 2.3414L10.635 4.87491C11.6056 4.90987 12.5248 5.32003 13.199 6.01906C13.8733 6.71808 14.25 7.65144 14.25 8.62265V10.1227C14.25 11.1172 13.8549 12.071 13.1517 12.7743C12.4484 13.4776 11.4946 13.8727 10.5 13.8727H3C2.40326 13.8727 1.83097 13.6356 1.40901 13.2136C0.987053 12.7917 0.75 12.2194 0.75 11.6227V7.12265C0.75 6.52592 0.987053 5.95362 1.40901 5.53166C1.83097 5.10971 2.40326 4.87265 3 4.87265H4.1895L8.1945 0.867655ZM3.75 6.37265H3C2.80109 6.37265 2.61032 6.45167 2.46967 6.59233C2.32902 6.73298 2.25 6.92374 2.25 7.12265V11.6227C2.25 11.8216 2.32902 12.0123 2.46967 12.153C2.61032 12.2936 2.80109 12.3727 3 12.3727H3.75V6.37265ZM5.25 12.3727H10.5C11.0967 12.3727 11.669 12.1356 12.091 11.7136C12.5129 11.2917 12.75 10.7194 12.75 10.1227V8.62265C12.75 8.02592 12.5129 7.45362 12.091 7.03166C11.669 6.60971 11.0967 6.37265 10.5 6.37265H8.25C8.05109 6.37265 7.86032 6.29364 7.71967 6.15298C7.57902 6.01233 7.5 5.82157 7.5 5.62265C7.5 5.42374 7.57902 5.23298 7.71967 5.09232C7.86032 4.95167 8.05109 4.87265 8.25 4.87265H9.11475L9.5775 2.09465C9.58423 2.05483 9.57813 2.01389 9.56008 1.97775C9.54202 1.94162 9.51295 1.91216 9.47706 1.89362C9.44116 1.87509 9.40031 1.86845 9.36039 1.87466C9.32048 1.88087 9.28357 1.8996 9.255 1.92815L5.25 5.93315V12.3727Z" fill="#849AA9"/>
</svg>
