<svg width="18" height="17" viewBox="0 0 18 17" fill="none" xmlns="http://www.w3.org/2000/svg">
<path d="M9.74356 9.27188C10.3403 9.27188 10.9125 9.5161 11.3345 9.9508C11.7564 10.3855 11.9935 10.9751 11.9935 11.5899L11.992 12.7458C12.1464 15.5845 10.024 17 6.08972 17C2.1689 16.9985 0 15.603 0 12.7875V11.5899C0 10.9751 0.237042 10.3855 0.65898 9.9508C1.08092 9.5161 1.65319 9.27188 2.2499 9.27188H9.74356ZM15.7433 9.27188C16.34 9.27188 16.9123 9.5161 17.3342 9.9508C17.7561 10.3855 17.9932 10.9751 17.9932 11.5899V12.4042C18.1282 14.9494 16.2533 16.2258 12.8274 16.2258C12.3624 16.2258 11.9245 16.2026 11.5165 16.1563C11.9515 15.7421 12.2769 15.2492 12.4839 14.6758L12.8274 14.6805C15.5033 14.6805 16.5727 13.9526 16.4932 12.446V11.5899C16.4932 11.3849 16.4142 11.1884 16.2736 11.0435C16.1329 10.8986 15.9422 10.8172 15.7433 10.8172H12.6489C12.4984 10.2186 12.1771 9.68032 11.7265 9.27188H15.7433ZM9.74356 10.8172H2.2499C2.05099 10.8172 1.86024 10.8986 1.71959 11.0435C1.57895 11.1884 1.49993 11.3849 1.49993 11.5899V12.7875C1.49993 14.5569 2.89187 15.4531 6.08972 15.4531C9.27558 15.4531 10.5895 14.5769 10.4935 12.7875V11.5899C10.4935 11.3849 10.4145 11.1884 10.2739 11.0435C10.1332 10.8986 9.94246 10.8172 9.74356 10.8172ZM5.99973 0C6.99424 0 7.94803 0.407024 8.65126 1.13153C9.35449 1.85604 9.74956 2.83868 9.74956 3.86329C9.74956 4.88789 9.35449 5.87053 8.65126 6.59504C7.94803 7.31955 6.99424 7.72657 5.99973 7.72657C5.00521 7.72657 4.05143 7.31955 3.3482 6.59504C2.64497 5.87053 2.2499 4.88789 2.2499 3.86329C2.2499 2.83868 2.64497 1.85604 3.3482 1.13153C4.05143 0.407024 5.00521 0 5.99973 0ZM13.4994 1.54531C14.295 1.54531 15.058 1.87093 15.6206 2.45054C16.1832 3.03014 16.4993 3.81626 16.4993 4.63594C16.4993 5.45563 16.1832 6.24174 15.6206 6.82135C15.058 7.40095 14.295 7.72657 13.4994 7.72657C12.7038 7.72657 11.9407 7.40095 11.3782 6.82135C10.8156 6.24174 10.4995 5.45563 10.4995 4.63594C10.4995 3.81626 10.8156 3.03014 11.3782 2.45054C11.9407 1.87093 12.7038 1.54531 13.4994 1.54531ZM5.99973 1.54531C5.40302 1.54531 4.83075 1.78953 4.40881 2.22423C3.98687 2.65894 3.74983 3.24852 3.74983 3.86329C3.74983 4.47805 3.98687 5.06764 4.40881 5.50234C4.83075 5.93704 5.40302 6.18126 5.99973 6.18126C6.59644 6.18126 7.16871 5.93704 7.59065 5.50234C8.01258 5.06764 8.24963 4.47805 8.24963 3.86329C8.24963 3.24852 8.01258 2.65894 7.59065 2.22423C7.16871 1.78953 6.59644 1.54531 5.99973 1.54531ZM13.4994 3.09063C13.1016 3.09063 12.7201 3.25344 12.4388 3.54324C12.1575 3.83304 11.9995 4.2261 11.9995 4.63594C11.9995 5.04578 12.1575 5.43884 12.4388 5.72864C12.7201 6.01845 13.1016 6.18126 13.4994 6.18126C13.8972 6.18126 14.2787 6.01845 14.56 5.72864C14.8413 5.43884 14.9993 5.04578 14.9993 4.63594C14.9993 4.2261 14.8413 3.83304 14.56 3.54324C14.2787 3.25344 13.8972 3.09063 13.4994 3.09063Z" fill="#FF993A"/>
</svg>
