<svg width="18" height="19" viewBox="0 0 18 19" fill="none" xmlns="http://www.w3.org/2000/svg">
<path d="M4.5 16.6226C3.90326 16.6226 3.33097 16.3855 2.90901 15.9635C2.48705 15.5416 2.25 14.9693 2.25 14.3726V3.87256C2.25 3.27582 2.48705 2.70353 2.90901 2.28157C3.33097 1.85961 3.90326 1.62256 4.5 1.62256H10.629C11.2254 1.62288 11.7973 1.86001 12.219 2.28181L15.0915 5.15281C15.5132 5.57479 15.7501 6.14698 15.75 6.74356V14.3726C15.75 14.9693 15.5129 15.5416 15.091 15.9635C14.669 16.3855 14.0967 16.6226 13.5 16.6226H4.5ZM3.75 14.3726C3.75 14.5715 3.82902 14.7622 3.96967 14.9029C4.11032 15.0435 4.30109 15.1226 4.5 15.1226H13.5C13.6989 15.1226 13.8897 15.0435 14.0303 14.9029C14.171 14.7622 14.25 14.5715 14.25 14.3726V7.62256H12C11.4033 7.62256 10.831 7.38551 10.409 6.96355C9.98705 6.54159 9.75 5.9693 9.75 5.37256V3.12256H4.5C4.30109 3.12256 4.11032 3.20158 3.96967 3.34223C3.82902 3.48288 3.75 3.67365 3.75 3.87256V14.3726ZM12 6.12256H13.9395L11.25 3.43306V5.37256C11.25 5.57147 11.329 5.76224 11.4697 5.90289C11.6103 6.04354 11.8011 6.12256 12 6.12256ZM6 9.12256C5.80109 9.12256 5.61032 9.20158 5.46967 9.34223C5.32902 9.48288 5.25 9.67365 5.25 9.87256C5.25 10.0715 5.32902 10.2622 5.46967 10.4029C5.61032 10.5435 5.80109 10.6226 6 10.6226H12C12.1989 10.6226 12.3897 10.5435 12.5303 10.4029C12.671 10.2622 12.75 10.0715 12.75 9.87256C12.75 9.67365 12.671 9.48288 12.5303 9.34223C12.3897 9.20158 12.1989 9.12256 12 9.12256H6ZM6 12.1226C5.80109 12.1226 5.61032 12.2016 5.46967 12.3422C5.32902 12.4829 5.25 12.6736 5.25 12.8726C5.25 13.0715 5.32902 13.2622 5.46967 13.4029C5.61032 13.5435 5.80109 13.6226 6 13.6226H9C9.19891 13.6226 9.38968 13.5435 9.53033 13.4029C9.67098 13.2622 9.75 13.0715 9.75 12.8726C9.75 12.6736 9.67098 12.4829 9.53033 12.3422C9.38968 12.2016 9.19891 12.1226 9 12.1226H6Z" fill="#849AA9"/>
</svg>
